<svg xmlns="http://www.w3.org/2000/svg" width="92.531" height="14.63" viewBox="0 0 92.531 14.63">
  <defs>
    <style>
      .cls-1 {
        fill: #302d32;
        fill-rule: evenodd;
      }
    </style>
  </defs>
  <path id="HOMEFOR" class="cls-1" d="M124.778,4596.29h-2.93v5.77h-5.713v-5.77h-2.929v14.22h2.929v-6.09h5.713v6.09h2.93v-14.22Zm14.238,6.8a8.551,8.551,0,0,0-.757-3.69,5.655,5.655,0,0,0-2.138-2.45,6.3,6.3,0,0,0-6.319,0,5.655,5.655,0,0,0-2.138,2.45,8.565,8.565,0,0,0-.757,3.7v0.7a8.338,8.338,0,0,0,.771,3.63,5.681,5.681,0,0,0,2.149,2.43,6.273,6.273,0,0,0,6.323-.01,5.6,5.6,0,0,0,2.124-2.44,8.589,8.589,0,0,0,.742-3.68v-0.64Zm-2.968.69a6.03,6.03,0,0,1-.8,3.37,2.8,2.8,0,0,1-4.571-.04,6.1,6.1,0,0,1-.8-3.38v-0.7a5.879,5.879,0,0,1,.81-3.36,2.829,2.829,0,0,1,4.561.01,6,6,0,0,1,.8,3.4v0.7Zm5.1-7.49v14.22h2.93v-3.88l-0.293-6.7,3.828,10.58h2.012l3.838-10.59-0.293,6.71v3.88h2.939v-14.22h-3.848l-3.632,10.32-3.653-10.32h-3.828Zm26.074,5.77h-5.625v-3.39h6.582v-2.38h-9.511v14.22H168.2v-2.35h-6.6v-3.81h5.625v-2.29Zm11.25,0.28h-5.625v-3.67h6.329v-2.38h-9.258v14.22h2.929v-5.81h5.625v-2.36Zm14.082,0.75a8.566,8.566,0,0,0-.756-3.69,5.664,5.664,0,0,0-2.139-2.45,6.3,6.3,0,0,0-6.318,0,5.651,5.651,0,0,0-2.139,2.45,8.565,8.565,0,0,0-.757,3.7v0.7a8.324,8.324,0,0,0,.772,3.63,5.672,5.672,0,0,0,2.148,2.43,6.273,6.273,0,0,0,6.323-.01,5.6,5.6,0,0,0,2.124-2.44,8.589,8.589,0,0,0,.742-3.68v-0.64Zm-2.968.69a6.03,6.03,0,0,1-.8,3.37,2.8,2.8,0,0,1-4.57-.04,6.086,6.086,0,0,1-.8-3.38v-0.7a5.879,5.879,0,0,1,.81-3.36,2.829,2.829,0,0,1,4.561.01,6,6,0,0,1,.8,3.4v0.7Zm13.027,6.73h3.145v-0.13l-3.077-5.81a4.326,4.326,0,0,0,1.91-1.55,4.4,4.4,0,0,0,.629-2.43,3.865,3.865,0,0,0-1.367-3.17,5.964,5.964,0,0,0-3.886-1.13H194.68v14.22h2.93v-5.2h2.334Zm-5-11.84h2.354a2.388,2.388,0,0,1,1.752.57,2.178,2.178,0,0,1,.572,1.59,1.993,1.993,0,0,1-.606,1.54,2.4,2.4,0,0,1-1.709.57H197.61v-4.27Z" transform="translate(-113.219 -4596.09)"/>
</svg>
