<svg id="logo" xmlns="http://www.w3.org/2000/svg" width="96" height="44" viewBox="0 0 96 44">
  <defs>
    <style>
      .cls-1 {
        fill: #302d32;
      }

      .cls-2 {
        fill: #fff;
        fill-rule: evenodd;
      }
    </style>
  </defs>
  <rect id="Прямоугольник_3_копия" data-name="Прямоугольник 3 копия" class="cls-1" width="96" height="44"/>
  <path id="HOMEFOR" class="cls-2" d="M133.347,16.849h-2.2v4.321h-4.285V16.849h-2.2V27.513h2.2v-4.57h4.285v4.57h2.2V16.849Zm10.679,5.1a6.378,6.378,0,0,0-.568-2.765,4.224,4.224,0,0,0-1.6-1.838,4.7,4.7,0,0,0-4.738,0,4.224,4.224,0,0,0-1.6,1.838,6.4,6.4,0,0,0-.568,2.772v0.527a6.253,6.253,0,0,0,.579,2.721,4.228,4.228,0,0,0,1.611,1.82,4.707,4.707,0,0,0,4.742-.007,4.19,4.19,0,0,0,1.593-1.831,6.438,6.438,0,0,0,.557-2.761V21.947Zm-2.227.513a4.514,4.514,0,0,1-.6,2.53,2.1,2.1,0,0,1-3.428-.033,4.547,4.547,0,0,1-.6-2.534V21.9a4.433,4.433,0,0,1,.607-2.523,2.122,2.122,0,0,1,3.421.011,4.491,4.491,0,0,1,.6,2.549v0.52Zm3.824-5.61V27.513h2.2V24.6l-0.22-5.024,2.871,7.94h1.509l2.879-7.947-0.22,5.032v2.915h2.2V16.849h-2.885l-2.725,7.735-2.739-7.735h-2.871Zm19.555,4.321H160.96V18.629H165.9v-1.78h-7.134V27.513h7.149V25.748H160.96V22.892h4.218V21.171Zm8.438,0.212H169.4V18.629h4.746v-1.78H167.2V27.513h2.2V23.155h4.219V21.383Zm10.561,0.564a6.392,6.392,0,0,0-.567-2.765,4.23,4.23,0,0,0-1.6-1.838,4.7,4.7,0,0,0-4.739,0,4.224,4.224,0,0,0-1.6,1.838,6.41,6.41,0,0,0-.568,2.772v0.527a6.253,6.253,0,0,0,.579,2.721,4.234,4.234,0,0,0,1.611,1.82,4.708,4.708,0,0,0,4.743-.007,4.19,4.19,0,0,0,1.593-1.831,6.438,6.438,0,0,0,.556-2.761V21.947Zm-2.226.513a4.513,4.513,0,0,1-.6,2.53,2.1,2.1,0,0,1-3.427-.033,4.538,4.538,0,0,1-.6-2.534V21.9a4.433,4.433,0,0,1,.608-2.523,2.121,2.121,0,0,1,3.42.011,4.482,4.482,0,0,1,.6,2.549v0.52Zm9.77,5.054h2.359v-0.1l-2.307-4.358a3.228,3.228,0,0,0,1.432-1.161,3.289,3.289,0,0,0,.472-1.82,2.908,2.908,0,0,0-1.025-2.38,4.483,4.483,0,0,0-2.916-.842h-3.962V27.513h2.2v-3.9h1.751Zm-3.75-8.884h1.765a1.78,1.78,0,0,1,1.315.432,1.61,1.61,0,0,1,.429,1.187,1.508,1.508,0,0,1-.454,1.161,1.815,1.815,0,0,1-1.282.421h-1.773v-3.2Z" transform="translate(-112)"/>
</svg>
